External Loads File
version=1
nRows=70
nColumns=13
Range=5.000000e-03-10 seconds
endheader
time 	forceRightX 	forceRightY 	forceRightZ 	pointRightX 	pointRightY 	pointRightZ 	forceLeftX 	forceLeftY 	forceLeftZ 	pointLeftX 	pointLeftY 	pointLeftZ 		
5.005000 -43.870767 -40.249402 -0.000000 0.225616 0.489735 -0.151869 9.302760 907.121884 -0.000000 0.314821 0.165261 -0.379099
5.010000 -51.360582 -26.038122 -0.000000 0.234294 0.494854 -0.152335 89.222263 859.566398 -0.000000 0.305941 0.161349 -0.378960
5.015000 -55.371591 -15.158993 -0.000000 0.243207 0.499136 -0.153033 60.684296 816.405585 -0.000000 0.296769 0.158136 -0.378855
5.020000 -60.554631 5.088910 -0.000000 0.252083 0.502647 -0.153326 127.225307 761.814721 -0.000000 0.287400 0.155593 -0.378811
5.025000 -65.633574 20.412204 -0.000000 0.261160 0.505446 -0.153513 99.231538 720.058422 -0.000000 0.277919 0.153684 -0.378846
5.030000 -67.020962 45.691304 -0.000000 0.270276 0.507435 -0.153617 158.068200 664.918927 -0.000000 0.267886 0.152512 -0.379488
5.035000 -72.586186 64.077102 -0.000000 0.279287 0.508475 -0.153572 134.439896 628.871426 -0.000000 0.258301 0.151976 -0.379378
5.040000 -79.468843 82.488721 -0.000000 0.288324 0.508972 -0.153330 113.969415 595.595648 -0.000000 0.248780 0.152176 -0.379297
5.045000 -74.607450 110.245121 -0.000000 0.296876 0.508186 -0.152910 166.215922 549.245915 -0.000000 0.239393 0.153149 -0.379131
5.050000 -65.083944 137.158396 -0.000000 0.305063 0.506863 -0.152231 215.563351 501.155561 -0.000000 0.230185 0.154871 -0.378888
5.055000 -72.035101 154.480066 -0.000000 0.312835 0.504764 -0.151445 200.611327 480.817935 -0.000000 0.221215 0.157299 -0.378661
5.060000 -81.170645 171.018919 -0.000000 0.320383 0.501989 -0.151047 189.019300 461.522989 -0.000000 0.212450 0.160460 -0.378363
5.065000 -92.387118 187.434431 -0.000000 0.327646 0.498236 -0.150536 180.864857 440.891910 -0.000000 0.203538 0.164271 -0.378401
5.070000 -107.688553 203.412432 -0.000000 0.334501 0.493910 -0.149892 171.331460 418.095635 -0.000000 0.195493 0.168750 -0.377849
5.075000 -126.867182 219.600218 -0.000000 0.341108 0.488767 -0.149203 161.392309 390.027961 -0.000000 0.187691 0.173750 -0.377453
5.080000 -150.547733 236.005599 -0.000000 0.347394 0.482971 -0.148552 149.999102 355.062707 -0.000000 0.179981 0.179251 -0.377156
5.085000 -179.515169 252.091057 -0.000000 0.353363 0.476453 -0.148175 136.222218 312.872596 -0.000000 0.172453 0.185390 -0.376920
5.090000 -214.267385 266.844758 -0.000000 0.359306 0.469253 -0.147450 120.181496 264.913588 -0.000000 0.165188 0.191836 -0.376646
5.095000 -81.036815 368.954917 -0.000000 0.364904 0.461411 -0.146728 196.771185 134.340720 -0.000000 0.158153 0.198786 -0.376487
5.100000 -115.666641 398.826509 -0.000000 0.370633 0.453094 -0.146818 159.136727 100.859954 -0.000000 0.151436 0.206274 -0.376402
5.105000 -154.950327 426.425466 -0.000000 0.375883 0.444362 -0.147047 126.705341 71.514527 -0.000000 0.145116 0.214080 -0.376225
5.110000 -200.671461 449.201571 -0.000000 0.380915 0.435103 -0.147157 100.426128 48.467596 -0.000000 0.139222 0.222840 -0.375894
5.115000 -249.121781 466.904469 -0.000000 0.385564 0.425656 -0.147348 80.781733 31.191541 -0.000000 0.133808 0.231585 -0.375956
5.120000 -300.870953 478.029036 -0.000000 0.389784 0.415712 -0.147526 66.864457 19.649519 -0.000000 0.128920 0.240649 -0.375952
5.125000 -355.252968 481.955449 -0.000000 0.393775 0.405421 -0.147668 57.603276 13.074261 -0.000000 0.124647 0.250045 -0.375963
5.130000 -123.304461 618.986439 -0.000000 0.397378 0.394997 -0.147744 50.308773 -16.233040 -0.000000 0.120959 0.259666 -0.376015
5.135000 -178.249590 638.009609 -0.000000 0.400470 0.384308 -0.147749 47.611273 -13.842174 -0.000000 0.117908 0.269528 -0.376055
5.140000 -236.202441 651.438673 -0.000000 0.403378 0.373447 -0.148013 47.252493 -9.834398 -0.000000 0.115401 0.279697 -0.376026
5.145000 -295.953699 659.417795 -0.000000 0.405419 0.362139 -0.147419 48.176934 -4.278409 -0.000000 0.113700 0.290091 -0.376195
5.150000 -356.757135 661.891962 -0.000000 0.407292 0.350854 -0.147256 49.529667 2.720747 -0.000000 0.112511 0.300585 -0.376142
5.155000 -417.663323 658.836519 -0.000000 0.408592 0.339568 -0.147029 50.626368 10.851110 -0.000000 0.112098 0.311198 -0.376208
5.160000 -215.125379 777.705799 -0.000000 0.409403 0.328269 -0.146799 54.546322 0.118367 -0.000000 0.112314 0.321749 -0.376194
5.165000 -271.378545 786.632685 -0.000000 0.409609 0.317209 -0.146585 56.803344 8.040100 -0.000000 0.113204 0.332348 -0.376159
5.170000 -211.881693 828.857071 -0.000000 0.409338 0.306185 -0.146255 59.208304 7.160651 -0.000000 0.114712 0.342916 -0.376113
5.175000 -264.826996 836.035251 -0.000000 0.408403 0.295351 -0.146292 59.350711 13.548261 -0.000000 0.116826 0.353936 -0.376154
5.180000 -212.637012 870.971770 -0.000000 0.407114 0.284584 -0.146008 59.676315 11.623199 -0.000000 0.119543 0.364384 -0.376180
5.185000 -263.101238 875.648313 -0.000000 0.405046 0.273974 -0.146015 57.155137 15.764853 -0.000000 0.122786 0.374431 -0.376221
5.190000 -206.218183 907.243510 -0.000000 0.402461 0.263602 -0.146223 55.086111 12.042066 -0.000000 0.126031 0.384588 -0.375576
5.195000 -254.044809 910.046064 -0.000000 0.399214 0.253556 -0.146114 50.383103 13.893309 -0.000000 0.130917 0.394663 -0.376483
5.200000 -189.476932 938.810022 -0.000000 0.395353 0.243723 -0.145878 46.348310 8.974046 -0.000000 0.135925 0.404415 -0.376242
5.205000 -235.506913 940.011402 -0.000000 0.391002 0.234126 -0.145680 40.574414 9.113628 -0.000000 0.140903 0.413868 -0.375816
5.210000 -164.070712 964.814798 -0.000000 0.386078 0.224868 -0.145529 35.557070 3.948665 -0.000000 0.146797 0.423116 -0.375832
5.215000 -209.310719 963.791324 -0.000000 0.380702 0.215961 -0.145393 29.998571 2.873336 -0.000000 0.153117 0.432059 -0.375787
5.220000 -133.597624 982.413988 -0.000000 0.374742 0.207634 -0.145176 24.911305 -2.293046 -0.000000 0.159919 0.440726 -0.376046
5.225000 -173.968847 978.500522 -0.000000 0.368423 0.199570 -0.145017 20.310124 -5.020178 -0.000000 0.167392 0.449245 -0.375381
5.230000 -213.108571 969.881521 -0.000000 0.361726 0.191945 -0.144927 16.383552 -9.108153 -0.000000 0.175413 0.457386 -0.375564
5.235000 -249.822390 956.506002 -0.000000 0.354674 0.185064 -0.144833 13.024424 -14.731407 -0.000000 0.181803 0.464901 -0.375305
5.240000 -283.982821 938.163045 -0.000000 0.347276 0.178340 -0.144652 10.025329 -21.951202 -0.000000 0.190233 0.472434 -0.375482
5.245000 -312.927943 915.488181 -0.000000 0.339599 0.172598 -0.144430 7.097761 -30.667902 -0.000000 0.198451 0.478639 -0.375288
5.250000 -338.282066 887.862980 -0.000000 0.331657 0.167324 -0.144242 4.103542 -40.396031 -0.000000 0.207075 0.484568 -0.375315
5.255000 -31.424727 927.245454 -0.000000 0.323560 0.162675 -0.144012 -16.990534 -47.299391 -0.000000 0.215819 0.489967 -0.375331
5.260000 48.707229 898.876897 -0.000000 0.315202 0.158709 -0.143681 -29.638837 -51.164936 -0.000000 0.225017 0.494719 -0.374894
5.265000 20.487615 866.989970 -0.000000 0.306743 0.155361 -0.143466 -36.109480 -55.400356 -0.000000 0.233983 0.498896 -0.374992
5.270000 -6.241889 828.875311 -0.000000 0.298008 0.152675 -0.142904 -41.735582 -57.018952 -0.000000 0.243058 0.502282 -0.375063
5.275000 77.806779 781.515510 -0.000000 0.289439 0.150702 -0.142730 -53.921313 -48.769723 -0.000000 0.252716 0.504932 -0.375130
5.280000 147.692184 722.076591 -0.000000 0.280865 0.149339 -0.142613 -63.264403 -35.932913 -0.000000 0.261563 0.507006 -0.375456
5.285000 121.075154 673.567793 -0.000000 0.272270 0.148732 -0.142540 -66.102055 -27.877626 -0.000000 0.270856 0.508232 -0.375862
5.290000 167.151583 605.437984 -0.000000 0.263785 0.148838 -0.142498 -70.222779 -9.903052 -0.000000 0.279811 0.508935 -0.376410
5.295000 141.453841 551.226403 -0.000000 0.255365 0.149635 -0.142539 -71.648932 1.953869 -0.000000 0.288512 0.508900 -0.376704
5.300000 183.520600 474.168260 -0.000000 0.247049 0.151217 -0.142659 -71.070946 24.414292 -0.000000 0.297071 0.507668 -0.377351
5.305000 156.382555 419.229365 -0.000000 0.238941 0.153460 -0.142792 -72.606995 38.054760 -0.000000 0.305058 0.505974 -0.377839
5.310000 175.823208 345.365772 -0.000000 0.230956 0.156465 -0.142968 -69.265787 61.215573 -0.000000 0.312755 0.503179 -0.378365
5.315000 149.454063 294.513645 -0.000000 0.223210 0.159962 -0.143107 -73.894817 77.060557 -0.000000 0.319991 0.499939 -0.379013
5.320000 164.173097 223.228361 -0.000000 0.215584 0.164102 -0.143305 -66.474627 106.184811 -0.000000 0.327060 0.495774 -0.379533
5.325000 139.462351 182.143345 -0.000000 0.208072 0.168753 -0.143582 -76.300191 127.245216 -0.000000 0.333833 0.491164 -0.380130
5.330000 131.781776 134.494201 -0.000000 0.200752 0.173883 -0.143801 -77.745188 158.326877 -0.000000 0.340436 0.485588 -0.380829
5.335000 114.222936 104.105724 -0.000000 0.193565 0.179487 -0.144010 -95.626061 186.336931 -0.000000 0.346604 0.479196 -0.381320
5.340000 109.107645 67.885497 -0.000000 0.186540 0.185526 -0.144163 -96.209690 227.770316 -0.000000 0.352772 0.472095 -0.381736
5.345000 98.637408 48.675230 -0.000000 0.179743 0.192027 -0.144183 -122.216433 261.969404 -0.000000 0.358700 0.464550 -0.381897
5.350000 96.246140 19.721713 -0.000000 0.173308 0.199040 -0.144354 -107.269158 316.004198 -0.000000 0.364082 0.456322 -0.381848
